<mxfile host="app.diagrams.net" modified="2023-06-24T08:34:26.196Z" agent="Mozilla/5.0 (Windows NT 10.0; Win64; x64) AppleWebKit/537.36 (KHTML, like Gecko) Chrome/115.0.0.0 Safari/537.36 Edg/115.0.1901.14" etag="2nAQxrBH9hUnb9xYCVe8" version="21.3.3" type="device">
  <diagram id="C5RBs43oDa-KdzZeNtuy" name="Page-1">
    <mxGraphModel dx="2825" dy="1558" grid="1" gridSize="10" guides="1" tooltips="1" connect="1" arrows="1" fold="1" page="1" pageScale="1" pageWidth="1169" pageHeight="1654" background="none" math="0" shadow="0">
      <root>
        <mxCell id="WIyWlLk6GJQsqaUBKTNV-0" />
        <mxCell id="WIyWlLk6GJQsqaUBKTNV-1" parent="WIyWlLk6GJQsqaUBKTNV-0" />
        <mxCell id="M2bIpuuUTLqfdFBLBwli-99" value="" style="rounded=0;whiteSpace=wrap;html=1;labelBackgroundColor=none;fillColor=#76608a;fontColor=#ffffff;strokeColor=#432D57;" vertex="1" parent="WIyWlLk6GJQsqaUBKTNV-1">
          <mxGeometry x="160" y="340" width="860" height="830" as="geometry" />
        </mxCell>
        <mxCell id="M2bIpuuUTLqfdFBLBwli-27" style="edgeStyle=orthogonalEdgeStyle;rounded=0;orthogonalLoop=1;jettySize=auto;html=1;exitX=0.5;exitY=0;exitDx=0;exitDy=0;entryX=0.5;entryY=0;entryDx=0;entryDy=0;labelBackgroundColor=none;fontColor=default;" edge="1" parent="WIyWlLk6GJQsqaUBKTNV-1" source="M2bIpuuUTLqfdFBLBwli-24" target="M2bIpuuUTLqfdFBLBwli-16">
          <mxGeometry relative="1" as="geometry" />
        </mxCell>
        <mxCell id="M2bIpuuUTLqfdFBLBwli-24" value="" style="rounded=0;whiteSpace=wrap;html=1;labelBackgroundColor=none;fillColor=#647687;strokeColor=#314354;fontColor=#ffffff;" vertex="1" parent="WIyWlLk6GJQsqaUBKTNV-1">
          <mxGeometry x="599.89" y="590" width="380" height="550" as="geometry" />
        </mxCell>
        <mxCell id="M2bIpuuUTLqfdFBLBwli-100" style="edgeStyle=orthogonalEdgeStyle;rounded=0;orthogonalLoop=1;jettySize=auto;html=1;exitX=0;exitY=0.5;exitDx=0;exitDy=0;entryX=0.5;entryY=0;entryDx=0;entryDy=0;" edge="1" parent="WIyWlLk6GJQsqaUBKTNV-1" source="M2bIpuuUTLqfdFBLBwli-0" target="M2bIpuuUTLqfdFBLBwli-35">
          <mxGeometry relative="1" as="geometry">
            <Array as="points">
              <mxPoint x="277" y="300" />
            </Array>
          </mxGeometry>
        </mxCell>
        <mxCell id="M2bIpuuUTLqfdFBLBwli-0" value="Start New Round" style="rounded=1;whiteSpace=wrap;html=1;labelBackgroundColor=none;" vertex="1" parent="WIyWlLk6GJQsqaUBKTNV-1">
          <mxGeometry x="537.89" y="270" width="120" height="60" as="geometry" />
        </mxCell>
        <mxCell id="M2bIpuuUTLqfdFBLBwli-33" style="edgeStyle=orthogonalEdgeStyle;rounded=0;orthogonalLoop=1;jettySize=auto;html=1;exitX=0.5;exitY=1;exitDx=0;exitDy=0;entryX=0.5;entryY=0;entryDx=0;entryDy=0;labelBackgroundColor=none;fontColor=default;" edge="1" parent="WIyWlLk6GJQsqaUBKTNV-1" source="M2bIpuuUTLqfdFBLBwli-3" target="M2bIpuuUTLqfdFBLBwli-4">
          <mxGeometry relative="1" as="geometry" />
        </mxCell>
        <mxCell id="M2bIpuuUTLqfdFBLBwli-3" value="Blind" style="rounded=1;whiteSpace=wrap;html=1;labelBackgroundColor=none;" vertex="1" parent="WIyWlLk6GJQsqaUBKTNV-1">
          <mxGeometry x="377.89" y="460" width="120" height="60" as="geometry" />
        </mxCell>
        <mxCell id="M2bIpuuUTLqfdFBLBwli-98" style="edgeStyle=orthogonalEdgeStyle;rounded=0;orthogonalLoop=1;jettySize=auto;html=1;exitX=1;exitY=0.5;exitDx=0;exitDy=0;entryX=0;entryY=0.5;entryDx=0;entryDy=0;labelBackgroundColor=none;fontColor=default;" edge="1" parent="WIyWlLk6GJQsqaUBKTNV-1" source="M2bIpuuUTLqfdFBLBwli-4" target="M2bIpuuUTLqfdFBLBwli-55">
          <mxGeometry relative="1" as="geometry">
            <Array as="points">
              <mxPoint x="550" y="610" />
              <mxPoint x="550" y="490" />
            </Array>
          </mxGeometry>
        </mxCell>
        <mxCell id="M2bIpuuUTLqfdFBLBwli-4" value="Pre-Flop" style="rounded=1;whiteSpace=wrap;html=1;labelBackgroundColor=none;" vertex="1" parent="WIyWlLk6GJQsqaUBKTNV-1">
          <mxGeometry x="377.89" y="580" width="120" height="60" as="geometry" />
        </mxCell>
        <mxCell id="M2bIpuuUTLqfdFBLBwli-29" style="edgeStyle=orthogonalEdgeStyle;rounded=0;orthogonalLoop=1;jettySize=auto;html=1;exitX=1;exitY=0.5;exitDx=0;exitDy=0;entryX=0;entryY=0.5;entryDx=0;entryDy=0;labelBackgroundColor=none;fontColor=default;" edge="1" parent="WIyWlLk6GJQsqaUBKTNV-1" source="M2bIpuuUTLqfdFBLBwli-5" target="M2bIpuuUTLqfdFBLBwli-55">
          <mxGeometry relative="1" as="geometry">
            <mxPoint x="574.89" y="725" as="targetPoint" />
            <Array as="points">
              <mxPoint x="550" y="730" />
              <mxPoint x="550" y="490" />
            </Array>
          </mxGeometry>
        </mxCell>
        <mxCell id="M2bIpuuUTLqfdFBLBwli-5" value="Flop" style="rounded=1;whiteSpace=wrap;html=1;labelBackgroundColor=none;" vertex="1" parent="WIyWlLk6GJQsqaUBKTNV-1">
          <mxGeometry x="377.89" y="700" width="120" height="60" as="geometry" />
        </mxCell>
        <mxCell id="M2bIpuuUTLqfdFBLBwli-30" style="edgeStyle=orthogonalEdgeStyle;rounded=0;orthogonalLoop=1;jettySize=auto;html=1;exitX=1;exitY=0.5;exitDx=0;exitDy=0;entryX=0;entryY=0.5;entryDx=0;entryDy=0;labelBackgroundColor=none;fontColor=default;" edge="1" parent="WIyWlLk6GJQsqaUBKTNV-1" source="M2bIpuuUTLqfdFBLBwli-6" target="M2bIpuuUTLqfdFBLBwli-55">
          <mxGeometry relative="1" as="geometry">
            <mxPoint x="574.89" y="854" as="targetPoint" />
            <Array as="points">
              <mxPoint x="550" y="855" />
              <mxPoint x="550" y="490" />
            </Array>
          </mxGeometry>
        </mxCell>
        <mxCell id="M2bIpuuUTLqfdFBLBwli-6" value="Turn" style="rounded=1;whiteSpace=wrap;html=1;labelBackgroundColor=none;" vertex="1" parent="WIyWlLk6GJQsqaUBKTNV-1">
          <mxGeometry x="377.89" y="824.5" width="120" height="60" as="geometry" />
        </mxCell>
        <mxCell id="M2bIpuuUTLqfdFBLBwli-31" style="edgeStyle=orthogonalEdgeStyle;rounded=0;orthogonalLoop=1;jettySize=auto;html=1;exitX=1;exitY=0.5;exitDx=0;exitDy=0;entryX=0;entryY=0.5;entryDx=0;entryDy=0;labelBackgroundColor=none;fontColor=default;" edge="1" parent="WIyWlLk6GJQsqaUBKTNV-1" source="M2bIpuuUTLqfdFBLBwli-7" target="M2bIpuuUTLqfdFBLBwli-55">
          <mxGeometry relative="1" as="geometry">
            <mxPoint x="574.89" y="980" as="targetPoint" />
            <Array as="points">
              <mxPoint x="550" y="980" />
              <mxPoint x="550" y="490" />
            </Array>
          </mxGeometry>
        </mxCell>
        <mxCell id="M2bIpuuUTLqfdFBLBwli-7" value="River" style="rounded=1;whiteSpace=wrap;html=1;labelBackgroundColor=none;" vertex="1" parent="WIyWlLk6GJQsqaUBKTNV-1">
          <mxGeometry x="377.89" y="950" width="120" height="60" as="geometry" />
        </mxCell>
        <mxCell id="M2bIpuuUTLqfdFBLBwli-75" style="edgeStyle=orthogonalEdgeStyle;rounded=0;orthogonalLoop=1;jettySize=auto;html=1;exitX=0.5;exitY=1;exitDx=0;exitDy=0;entryX=0;entryY=0.5;entryDx=0;entryDy=0;labelBackgroundColor=none;fontColor=default;" edge="1" parent="WIyWlLk6GJQsqaUBKTNV-1" source="M2bIpuuUTLqfdFBLBwli-8" target="M2bIpuuUTLqfdFBLBwli-59">
          <mxGeometry relative="1" as="geometry" />
        </mxCell>
        <mxCell id="M2bIpuuUTLqfdFBLBwli-8" value="Showdown" style="rounded=1;whiteSpace=wrap;html=1;labelBackgroundColor=none;" vertex="1" parent="WIyWlLk6GJQsqaUBKTNV-1">
          <mxGeometry x="377.89" y="1080" width="120" height="60" as="geometry" />
        </mxCell>
        <mxCell id="M2bIpuuUTLqfdFBLBwli-18" value="" style="edgeStyle=orthogonalEdgeStyle;rounded=0;orthogonalLoop=1;jettySize=auto;html=1;labelBackgroundColor=none;fontColor=default;" edge="1" parent="WIyWlLk6GJQsqaUBKTNV-1" source="M2bIpuuUTLqfdFBLBwli-11" target="M2bIpuuUTLqfdFBLBwli-15">
          <mxGeometry relative="1" as="geometry" />
        </mxCell>
        <mxCell id="M2bIpuuUTLqfdFBLBwli-11" value="Get Next Player" style="rounded=1;whiteSpace=wrap;html=1;labelBackgroundColor=none;" vertex="1" parent="WIyWlLk6GJQsqaUBKTNV-1">
          <mxGeometry x="729.89" y="770" width="120" height="60" as="geometry" />
        </mxCell>
        <mxCell id="M2bIpuuUTLqfdFBLBwli-25" style="edgeStyle=orthogonalEdgeStyle;rounded=0;orthogonalLoop=1;jettySize=auto;html=1;exitX=0.5;exitY=1;exitDx=0;exitDy=0;entryX=0;entryY=0.5;entryDx=0;entryDy=0;labelBackgroundColor=none;fontColor=default;" edge="1" parent="WIyWlLk6GJQsqaUBKTNV-1" source="M2bIpuuUTLqfdFBLBwli-13" target="M2bIpuuUTLqfdFBLBwli-16">
          <mxGeometry relative="1" as="geometry">
            <Array as="points">
              <mxPoint x="689.89" y="1070" />
              <mxPoint x="619.89" y="1070" />
              <mxPoint x="619.89" y="680" />
            </Array>
          </mxGeometry>
        </mxCell>
        <mxCell id="M2bIpuuUTLqfdFBLBwli-13" value="Player Betting" style="rounded=1;whiteSpace=wrap;html=1;arcSize=21;labelBackgroundColor=none;" vertex="1" parent="WIyWlLk6GJQsqaUBKTNV-1">
          <mxGeometry x="629.89" y="990" width="120" height="60" as="geometry" />
        </mxCell>
        <mxCell id="M2bIpuuUTLqfdFBLBwli-26" style="edgeStyle=orthogonalEdgeStyle;rounded=0;orthogonalLoop=1;jettySize=auto;html=1;exitX=0.5;exitY=1;exitDx=0;exitDy=0;entryX=1;entryY=0.5;entryDx=0;entryDy=0;labelBackgroundColor=none;fontColor=default;" edge="1" parent="WIyWlLk6GJQsqaUBKTNV-1" source="M2bIpuuUTLqfdFBLBwli-14" target="M2bIpuuUTLqfdFBLBwli-16">
          <mxGeometry relative="1" as="geometry">
            <Array as="points">
              <mxPoint x="879.89" y="1070" />
              <mxPoint x="959.89" y="1070" />
              <mxPoint x="959.89" y="680" />
            </Array>
          </mxGeometry>
        </mxCell>
        <mxCell id="M2bIpuuUTLqfdFBLBwli-14" value="AI Betting" style="rounded=1;whiteSpace=wrap;html=1;labelBackgroundColor=none;" vertex="1" parent="WIyWlLk6GJQsqaUBKTNV-1">
          <mxGeometry x="819.89" y="990" width="120" height="60" as="geometry" />
        </mxCell>
        <mxCell id="M2bIpuuUTLqfdFBLBwli-22" value="" style="edgeStyle=orthogonalEdgeStyle;rounded=0;orthogonalLoop=1;jettySize=auto;html=1;exitX=0.5;exitY=1;exitDx=0;exitDy=0;labelBackgroundColor=none;fontColor=default;" edge="1" parent="WIyWlLk6GJQsqaUBKTNV-1" source="M2bIpuuUTLqfdFBLBwli-15" target="M2bIpuuUTLqfdFBLBwli-13">
          <mxGeometry relative="1" as="geometry" />
        </mxCell>
        <mxCell id="M2bIpuuUTLqfdFBLBwli-85" value="Human" style="edgeLabel;html=1;align=center;verticalAlign=middle;resizable=0;points=[];labelBackgroundColor=none;" vertex="1" connectable="0" parent="M2bIpuuUTLqfdFBLBwli-22">
          <mxGeometry x="-0.171" relative="1" as="geometry">
            <mxPoint as="offset" />
          </mxGeometry>
        </mxCell>
        <mxCell id="M2bIpuuUTLqfdFBLBwli-23" value="" style="edgeStyle=orthogonalEdgeStyle;rounded=0;orthogonalLoop=1;jettySize=auto;html=1;labelBackgroundColor=none;fontColor=default;" edge="1" parent="WIyWlLk6GJQsqaUBKTNV-1" source="M2bIpuuUTLqfdFBLBwli-15" target="M2bIpuuUTLqfdFBLBwli-14">
          <mxGeometry relative="1" as="geometry" />
        </mxCell>
        <mxCell id="M2bIpuuUTLqfdFBLBwli-86" value="Computer" style="edgeLabel;html=1;align=center;verticalAlign=middle;resizable=0;points=[];labelBackgroundColor=none;" vertex="1" connectable="0" parent="M2bIpuuUTLqfdFBLBwli-23">
          <mxGeometry x="-0.1483" relative="1" as="geometry">
            <mxPoint as="offset" />
          </mxGeometry>
        </mxCell>
        <mxCell id="M2bIpuuUTLqfdFBLBwli-15" value="Player Type" style="rhombus;whiteSpace=wrap;html=1;labelBackgroundColor=none;" vertex="1" parent="WIyWlLk6GJQsqaUBKTNV-1">
          <mxGeometry x="749.89" y="870" width="80" height="80" as="geometry" />
        </mxCell>
        <mxCell id="M2bIpuuUTLqfdFBLBwli-17" value="No" style="edgeStyle=orthogonalEdgeStyle;rounded=0;orthogonalLoop=1;jettySize=auto;html=1;labelBackgroundColor=none;fontColor=default;" edge="1" parent="WIyWlLk6GJQsqaUBKTNV-1" source="M2bIpuuUTLqfdFBLBwli-16" target="M2bIpuuUTLqfdFBLBwli-11">
          <mxGeometry relative="1" as="geometry" />
        </mxCell>
        <mxCell id="M2bIpuuUTLqfdFBLBwli-91" style="edgeStyle=orthogonalEdgeStyle;rounded=0;orthogonalLoop=1;jettySize=auto;html=1;exitX=1;exitY=0;exitDx=0;exitDy=0;entryX=1;entryY=0.5;entryDx=0;entryDy=0;labelBackgroundColor=none;fontColor=default;" edge="1" parent="WIyWlLk6GJQsqaUBKTNV-1" source="M2bIpuuUTLqfdFBLBwli-16" target="M2bIpuuUTLqfdFBLBwli-35">
          <mxGeometry relative="1" as="geometry">
            <Array as="points">
              <mxPoint x="879.89" y="660" />
              <mxPoint x="879.89" y="390" />
            </Array>
          </mxGeometry>
        </mxCell>
        <mxCell id="M2bIpuuUTLqfdFBLBwli-92" value="Yes" style="edgeLabel;html=1;align=center;verticalAlign=middle;resizable=0;points=[];labelBackgroundColor=none;" vertex="1" connectable="0" parent="M2bIpuuUTLqfdFBLBwli-91">
          <mxGeometry x="-0.8802" y="1" relative="1" as="geometry">
            <mxPoint as="offset" />
          </mxGeometry>
        </mxCell>
        <mxCell id="M2bIpuuUTLqfdFBLBwli-16" value="Is Round Over?" style="rhombus;whiteSpace=wrap;html=1;labelBackgroundColor=none;" vertex="1" parent="WIyWlLk6GJQsqaUBKTNV-1">
          <mxGeometry x="749.89" y="640" width="80" height="80" as="geometry" />
        </mxCell>
        <mxCell id="M2bIpuuUTLqfdFBLBwli-41" style="edgeStyle=orthogonalEdgeStyle;rounded=0;orthogonalLoop=1;jettySize=auto;html=1;exitX=1;exitY=0.5;exitDx=0;exitDy=0;entryX=0;entryY=0.5;entryDx=0;entryDy=0;labelBackgroundColor=none;fontColor=default;" edge="1" parent="WIyWlLk6GJQsqaUBKTNV-1" source="M2bIpuuUTLqfdFBLBwli-34" target="M2bIpuuUTLqfdFBLBwli-3">
          <mxGeometry relative="1" as="geometry" />
        </mxCell>
        <mxCell id="M2bIpuuUTLqfdFBLBwli-78" value="Yes" style="edgeLabel;html=1;align=center;verticalAlign=middle;resizable=0;points=[];labelBackgroundColor=none;" vertex="1" connectable="0" parent="M2bIpuuUTLqfdFBLBwli-41">
          <mxGeometry x="-0.2791" y="2" relative="1" as="geometry">
            <mxPoint as="offset" />
          </mxGeometry>
        </mxCell>
        <mxCell id="M2bIpuuUTLqfdFBLBwli-49" value="No" style="edgeStyle=orthogonalEdgeStyle;rounded=0;orthogonalLoop=1;jettySize=auto;html=1;exitX=0.5;exitY=1;exitDx=0;exitDy=0;entryX=0.5;entryY=0;entryDx=0;entryDy=0;labelBackgroundColor=none;fontColor=default;" edge="1" parent="WIyWlLk6GJQsqaUBKTNV-1" source="M2bIpuuUTLqfdFBLBwli-34" target="M2bIpuuUTLqfdFBLBwli-36">
          <mxGeometry relative="1" as="geometry" />
        </mxCell>
        <mxCell id="M2bIpuuUTLqfdFBLBwli-34" value="Is Blind?" style="rhombus;whiteSpace=wrap;html=1;labelBackgroundColor=none;" vertex="1" parent="WIyWlLk6GJQsqaUBKTNV-1">
          <mxGeometry x="237.89" y="450" width="80" height="80" as="geometry" />
        </mxCell>
        <mxCell id="M2bIpuuUTLqfdFBLBwli-48" style="edgeStyle=orthogonalEdgeStyle;rounded=0;orthogonalLoop=1;jettySize=auto;html=1;exitX=0.5;exitY=1;exitDx=0;exitDy=0;entryX=0.5;entryY=0;entryDx=0;entryDy=0;labelBackgroundColor=none;fontColor=default;" edge="1" parent="WIyWlLk6GJQsqaUBKTNV-1" source="M2bIpuuUTLqfdFBLBwli-35" target="M2bIpuuUTLqfdFBLBwli-34">
          <mxGeometry relative="1" as="geometry" />
        </mxCell>
        <mxCell id="M2bIpuuUTLqfdFBLBwli-35" value="Switch Game Stage" style="rounded=1;whiteSpace=wrap;html=1;labelBackgroundColor=none;" vertex="1" parent="WIyWlLk6GJQsqaUBKTNV-1">
          <mxGeometry x="216.89" y="360" width="120" height="60" as="geometry" />
        </mxCell>
        <mxCell id="M2bIpuuUTLqfdFBLBwli-42" style="edgeStyle=orthogonalEdgeStyle;rounded=0;orthogonalLoop=1;jettySize=auto;html=1;exitX=1;exitY=0.5;exitDx=0;exitDy=0;entryX=0;entryY=0.5;entryDx=0;entryDy=0;labelBackgroundColor=none;fontColor=default;" edge="1" parent="WIyWlLk6GJQsqaUBKTNV-1" source="M2bIpuuUTLqfdFBLBwli-36" target="M2bIpuuUTLqfdFBLBwli-4">
          <mxGeometry relative="1" as="geometry" />
        </mxCell>
        <mxCell id="M2bIpuuUTLqfdFBLBwli-80" value="Yes" style="edgeLabel;html=1;align=center;verticalAlign=middle;resizable=0;points=[];labelBackgroundColor=none;" vertex="1" connectable="0" parent="M2bIpuuUTLqfdFBLBwli-42">
          <mxGeometry x="-0.297" y="-1" relative="1" as="geometry">
            <mxPoint as="offset" />
          </mxGeometry>
        </mxCell>
        <mxCell id="M2bIpuuUTLqfdFBLBwli-50" value="No" style="edgeStyle=orthogonalEdgeStyle;rounded=0;orthogonalLoop=1;jettySize=auto;html=1;exitX=0.5;exitY=1;exitDx=0;exitDy=0;entryX=0.5;entryY=0;entryDx=0;entryDy=0;labelBackgroundColor=none;fontColor=default;" edge="1" parent="WIyWlLk6GJQsqaUBKTNV-1" source="M2bIpuuUTLqfdFBLBwli-36" target="M2bIpuuUTLqfdFBLBwli-37">
          <mxGeometry relative="1" as="geometry" />
        </mxCell>
        <mxCell id="M2bIpuuUTLqfdFBLBwli-36" value="Is Pre-Flop" style="rhombus;whiteSpace=wrap;html=1;labelBackgroundColor=none;" vertex="1" parent="WIyWlLk6GJQsqaUBKTNV-1">
          <mxGeometry x="237.89" y="570" width="80" height="80" as="geometry" />
        </mxCell>
        <mxCell id="M2bIpuuUTLqfdFBLBwli-43" style="edgeStyle=orthogonalEdgeStyle;rounded=0;orthogonalLoop=1;jettySize=auto;html=1;exitX=1;exitY=0.5;exitDx=0;exitDy=0;entryX=0;entryY=0.5;entryDx=0;entryDy=0;labelBackgroundColor=none;fontColor=default;" edge="1" parent="WIyWlLk6GJQsqaUBKTNV-1" source="M2bIpuuUTLqfdFBLBwli-37" target="M2bIpuuUTLqfdFBLBwli-5">
          <mxGeometry relative="1" as="geometry">
            <Array as="points">
              <mxPoint x="329.89" y="730" />
              <mxPoint x="329.89" y="730" />
            </Array>
          </mxGeometry>
        </mxCell>
        <mxCell id="M2bIpuuUTLqfdFBLBwli-81" value="Yes" style="edgeLabel;html=1;align=center;verticalAlign=middle;resizable=0;points=[];labelBackgroundColor=none;" vertex="1" connectable="0" parent="M2bIpuuUTLqfdFBLBwli-43">
          <mxGeometry x="-0.2363" y="1" relative="1" as="geometry">
            <mxPoint as="offset" />
          </mxGeometry>
        </mxCell>
        <mxCell id="M2bIpuuUTLqfdFBLBwli-51" value="No" style="edgeStyle=orthogonalEdgeStyle;rounded=0;orthogonalLoop=1;jettySize=auto;html=1;exitX=0.5;exitY=1;exitDx=0;exitDy=0;entryX=0.5;entryY=0;entryDx=0;entryDy=0;labelBackgroundColor=none;fontColor=default;" edge="1" parent="WIyWlLk6GJQsqaUBKTNV-1" source="M2bIpuuUTLqfdFBLBwli-37" target="M2bIpuuUTLqfdFBLBwli-38">
          <mxGeometry relative="1" as="geometry" />
        </mxCell>
        <mxCell id="M2bIpuuUTLqfdFBLBwli-37" value="Is Flop?" style="rhombus;whiteSpace=wrap;html=1;labelBackgroundColor=none;" vertex="1" parent="WIyWlLk6GJQsqaUBKTNV-1">
          <mxGeometry x="237.89" y="690" width="80" height="80" as="geometry" />
        </mxCell>
        <mxCell id="M2bIpuuUTLqfdFBLBwli-44" style="edgeStyle=orthogonalEdgeStyle;rounded=0;orthogonalLoop=1;jettySize=auto;html=1;exitX=1;exitY=0.5;exitDx=0;exitDy=0;entryX=0;entryY=0.5;entryDx=0;entryDy=0;labelBackgroundColor=none;fontColor=default;" edge="1" parent="WIyWlLk6GJQsqaUBKTNV-1" source="M2bIpuuUTLqfdFBLBwli-38" target="M2bIpuuUTLqfdFBLBwli-6">
          <mxGeometry relative="1" as="geometry" />
        </mxCell>
        <mxCell id="M2bIpuuUTLqfdFBLBwli-82" value="Yes" style="edgeLabel;html=1;align=center;verticalAlign=middle;resizable=0;points=[];labelBackgroundColor=none;" vertex="1" connectable="0" parent="M2bIpuuUTLqfdFBLBwli-44">
          <mxGeometry x="-0.2566" y="-1" relative="1" as="geometry">
            <mxPoint as="offset" />
          </mxGeometry>
        </mxCell>
        <mxCell id="M2bIpuuUTLqfdFBLBwli-52" value="No" style="edgeStyle=orthogonalEdgeStyle;rounded=0;orthogonalLoop=1;jettySize=auto;html=1;exitX=0.5;exitY=1;exitDx=0;exitDy=0;entryX=0.5;entryY=0;entryDx=0;entryDy=0;labelBackgroundColor=none;fontColor=default;" edge="1" parent="WIyWlLk6GJQsqaUBKTNV-1" source="M2bIpuuUTLqfdFBLBwli-38" target="M2bIpuuUTLqfdFBLBwli-39">
          <mxGeometry relative="1" as="geometry" />
        </mxCell>
        <mxCell id="M2bIpuuUTLqfdFBLBwli-38" value="Is Turn?" style="rhombus;whiteSpace=wrap;html=1;labelBackgroundColor=none;" vertex="1" parent="WIyWlLk6GJQsqaUBKTNV-1">
          <mxGeometry x="237.89" y="814.5" width="80" height="80" as="geometry" />
        </mxCell>
        <mxCell id="M2bIpuuUTLqfdFBLBwli-45" style="edgeStyle=orthogonalEdgeStyle;rounded=0;orthogonalLoop=1;jettySize=auto;html=1;exitX=1;exitY=0.5;exitDx=0;exitDy=0;entryX=0;entryY=0.5;entryDx=0;entryDy=0;labelBackgroundColor=none;fontColor=default;" edge="1" parent="WIyWlLk6GJQsqaUBKTNV-1" source="M2bIpuuUTLqfdFBLBwli-39" target="M2bIpuuUTLqfdFBLBwli-7">
          <mxGeometry relative="1" as="geometry" />
        </mxCell>
        <mxCell id="M2bIpuuUTLqfdFBLBwli-83" value="Yes" style="edgeLabel;html=1;align=center;verticalAlign=middle;resizable=0;points=[];labelBackgroundColor=none;" vertex="1" connectable="0" parent="M2bIpuuUTLqfdFBLBwli-45">
          <mxGeometry x="-0.2768" relative="1" as="geometry">
            <mxPoint as="offset" />
          </mxGeometry>
        </mxCell>
        <mxCell id="M2bIpuuUTLqfdFBLBwli-53" value="No" style="edgeStyle=orthogonalEdgeStyle;rounded=0;orthogonalLoop=1;jettySize=auto;html=1;exitX=0.5;exitY=1;exitDx=0;exitDy=0;entryX=0.5;entryY=0;entryDx=0;entryDy=0;labelBackgroundColor=none;fontColor=default;" edge="1" parent="WIyWlLk6GJQsqaUBKTNV-1" source="M2bIpuuUTLqfdFBLBwli-39" target="M2bIpuuUTLqfdFBLBwli-40">
          <mxGeometry relative="1" as="geometry" />
        </mxCell>
        <mxCell id="M2bIpuuUTLqfdFBLBwli-39" value="Is River?" style="rhombus;whiteSpace=wrap;html=1;labelBackgroundColor=none;" vertex="1" parent="WIyWlLk6GJQsqaUBKTNV-1">
          <mxGeometry x="237.89" y="940" width="80" height="80" as="geometry" />
        </mxCell>
        <mxCell id="M2bIpuuUTLqfdFBLBwli-46" style="edgeStyle=orthogonalEdgeStyle;rounded=0;orthogonalLoop=1;jettySize=auto;html=1;exitX=1;exitY=0.5;exitDx=0;exitDy=0;entryX=0;entryY=0.5;entryDx=0;entryDy=0;labelBackgroundColor=none;fontColor=default;" edge="1" parent="WIyWlLk6GJQsqaUBKTNV-1" source="M2bIpuuUTLqfdFBLBwli-40" target="M2bIpuuUTLqfdFBLBwli-8">
          <mxGeometry relative="1" as="geometry" />
        </mxCell>
        <mxCell id="M2bIpuuUTLqfdFBLBwli-84" value="Yes" style="edgeLabel;html=1;align=center;verticalAlign=middle;resizable=0;points=[];labelBackgroundColor=none;" vertex="1" connectable="0" parent="M2bIpuuUTLqfdFBLBwli-46">
          <mxGeometry x="-0.2162" y="2" relative="1" as="geometry">
            <mxPoint as="offset" />
          </mxGeometry>
        </mxCell>
        <mxCell id="M2bIpuuUTLqfdFBLBwli-40" value="Is Showdown?" style="rhombus;whiteSpace=wrap;html=1;labelBackgroundColor=none;" vertex="1" parent="WIyWlLk6GJQsqaUBKTNV-1">
          <mxGeometry x="237.89" y="1070" width="80" height="80" as="geometry" />
        </mxCell>
        <mxCell id="M2bIpuuUTLqfdFBLBwli-58" style="edgeStyle=orthogonalEdgeStyle;rounded=0;orthogonalLoop=1;jettySize=auto;html=1;exitX=0.5;exitY=1;exitDx=0;exitDy=0;entryX=0.5;entryY=0;entryDx=0;entryDy=0;labelBackgroundColor=none;fontColor=default;" edge="1" parent="WIyWlLk6GJQsqaUBKTNV-1" source="M2bIpuuUTLqfdFBLBwli-55" target="M2bIpuuUTLqfdFBLBwli-16">
          <mxGeometry relative="1" as="geometry" />
        </mxCell>
        <mxCell id="M2bIpuuUTLqfdFBLBwli-55" value="Deal Cards" style="rounded=1;whiteSpace=wrap;html=1;labelBackgroundColor=none;" vertex="1" parent="WIyWlLk6GJQsqaUBKTNV-1">
          <mxGeometry x="729.89" y="460" width="120" height="60" as="geometry" />
        </mxCell>
        <mxCell id="M2bIpuuUTLqfdFBLBwli-61" style="edgeStyle=orthogonalEdgeStyle;rounded=0;orthogonalLoop=1;jettySize=auto;html=1;exitX=0.5;exitY=1;exitDx=0;exitDy=0;entryX=0.5;entryY=0;entryDx=0;entryDy=0;labelBackgroundColor=none;fontColor=default;" edge="1" parent="WIyWlLk6GJQsqaUBKTNV-1" source="M2bIpuuUTLqfdFBLBwli-59" target="M2bIpuuUTLqfdFBLBwli-60">
          <mxGeometry relative="1" as="geometry" />
        </mxCell>
        <mxCell id="M2bIpuuUTLqfdFBLBwli-59" value="Determine Winner" style="rounded=1;whiteSpace=wrap;html=1;labelBackgroundColor=none;" vertex="1" parent="WIyWlLk6GJQsqaUBKTNV-1">
          <mxGeometry x="537.89" y="1190" width="120" height="60" as="geometry" />
        </mxCell>
        <mxCell id="M2bIpuuUTLqfdFBLBwli-63" style="edgeStyle=orthogonalEdgeStyle;rounded=0;orthogonalLoop=1;jettySize=auto;html=1;exitX=0.5;exitY=1;exitDx=0;exitDy=0;entryX=0.5;entryY=0;entryDx=0;entryDy=0;labelBackgroundColor=none;fontColor=default;" edge="1" parent="WIyWlLk6GJQsqaUBKTNV-1" source="M2bIpuuUTLqfdFBLBwli-60" target="M2bIpuuUTLqfdFBLBwli-62">
          <mxGeometry relative="1" as="geometry" />
        </mxCell>
        <mxCell id="M2bIpuuUTLqfdFBLBwli-69" value="No" style="edgeLabel;html=1;align=center;verticalAlign=middle;resizable=0;points=[];labelBackgroundColor=none;" vertex="1" connectable="0" parent="M2bIpuuUTLqfdFBLBwli-63">
          <mxGeometry x="-0.2248" y="-3" relative="1" as="geometry">
            <mxPoint as="offset" />
          </mxGeometry>
        </mxCell>
        <mxCell id="M2bIpuuUTLqfdFBLBwli-64" style="edgeStyle=orthogonalEdgeStyle;rounded=0;orthogonalLoop=1;jettySize=auto;html=1;exitX=0;exitY=0.5;exitDx=0;exitDy=0;entryX=0.341;entryY=-0.045;entryDx=0;entryDy=0;entryPerimeter=0;labelBackgroundColor=none;fontColor=default;" edge="1" parent="WIyWlLk6GJQsqaUBKTNV-1" source="M2bIpuuUTLqfdFBLBwli-66" target="M2bIpuuUTLqfdFBLBwli-0">
          <mxGeometry relative="1" as="geometry">
            <mxPoint x="490" y="260" as="targetPoint" />
            <Array as="points">
              <mxPoint x="194" y="1320" />
              <mxPoint x="194" y="240" />
              <mxPoint x="579" y="240" />
            </Array>
          </mxGeometry>
        </mxCell>
        <mxCell id="M2bIpuuUTLqfdFBLBwli-70" value="Yes" style="edgeLabel;html=1;align=center;verticalAlign=middle;resizable=0;points=[];labelBackgroundColor=none;" vertex="1" connectable="0" parent="M2bIpuuUTLqfdFBLBwli-64">
          <mxGeometry x="-0.9306" y="-1" relative="1" as="geometry">
            <mxPoint as="offset" />
          </mxGeometry>
        </mxCell>
        <mxCell id="M2bIpuuUTLqfdFBLBwli-67" style="edgeStyle=orthogonalEdgeStyle;rounded=0;orthogonalLoop=1;jettySize=auto;html=1;exitX=0;exitY=0.5;exitDx=0;exitDy=0;entryX=1;entryY=0.5;entryDx=0;entryDy=0;labelBackgroundColor=none;fontColor=default;" edge="1" parent="WIyWlLk6GJQsqaUBKTNV-1" source="M2bIpuuUTLqfdFBLBwli-60" target="M2bIpuuUTLqfdFBLBwli-66">
          <mxGeometry relative="1" as="geometry" />
        </mxCell>
        <mxCell id="M2bIpuuUTLqfdFBLBwli-68" value="Yes" style="edgeLabel;html=1;align=center;verticalAlign=middle;resizable=0;points=[];labelBackgroundColor=none;" vertex="1" connectable="0" parent="M2bIpuuUTLqfdFBLBwli-67">
          <mxGeometry x="-0.0989" y="-2" relative="1" as="geometry">
            <mxPoint as="offset" />
          </mxGeometry>
        </mxCell>
        <mxCell id="M2bIpuuUTLqfdFBLBwli-60" value="Any Money Left?" style="rhombus;whiteSpace=wrap;html=1;labelBackgroundColor=none;" vertex="1" parent="WIyWlLk6GJQsqaUBKTNV-1">
          <mxGeometry x="557.89" y="1280" width="80" height="80" as="geometry" />
        </mxCell>
        <mxCell id="M2bIpuuUTLqfdFBLBwli-94" style="edgeStyle=orthogonalEdgeStyle;rounded=0;orthogonalLoop=1;jettySize=auto;html=1;exitX=0.5;exitY=1;exitDx=0;exitDy=0;entryX=1;entryY=0.5;entryDx=0;entryDy=0;labelBackgroundColor=none;fontColor=default;" edge="1" parent="WIyWlLk6GJQsqaUBKTNV-1" source="M2bIpuuUTLqfdFBLBwli-62" target="M2bIpuuUTLqfdFBLBwli-76">
          <mxGeometry relative="1" as="geometry">
            <Array as="points">
              <mxPoint x="598" y="1530" />
              <mxPoint x="1070" y="1530" />
              <mxPoint x="1070" y="170" />
            </Array>
          </mxGeometry>
        </mxCell>
        <mxCell id="M2bIpuuUTLqfdFBLBwli-62" value="Loser! End Game" style="rounded=1;whiteSpace=wrap;html=1;labelBackgroundColor=none;" vertex="1" parent="WIyWlLk6GJQsqaUBKTNV-1">
          <mxGeometry x="537.89" y="1430" width="120" height="60" as="geometry" />
        </mxCell>
        <mxCell id="M2bIpuuUTLqfdFBLBwli-93" style="edgeStyle=orthogonalEdgeStyle;rounded=0;orthogonalLoop=1;jettySize=auto;html=1;exitX=0.5;exitY=1;exitDx=0;exitDy=0;entryX=0;entryY=0.5;entryDx=0;entryDy=0;labelBackgroundColor=none;fontColor=default;" edge="1" parent="WIyWlLk6GJQsqaUBKTNV-1" source="M2bIpuuUTLqfdFBLBwli-65" target="M2bIpuuUTLqfdFBLBwli-76">
          <mxGeometry relative="1" as="geometry">
            <Array as="points">
              <mxPoint x="394" y="1530" />
              <mxPoint x="100" y="1530" />
              <mxPoint x="100" y="170" />
            </Array>
          </mxGeometry>
        </mxCell>
        <mxCell id="M2bIpuuUTLqfdFBLBwli-65" value="Winner! End Game" style="rounded=1;whiteSpace=wrap;html=1;labelBackgroundColor=none;" vertex="1" parent="WIyWlLk6GJQsqaUBKTNV-1">
          <mxGeometry x="333.89" y="1430" width="120" height="60" as="geometry" />
        </mxCell>
        <mxCell id="M2bIpuuUTLqfdFBLBwli-66" value="Any Other Players Left?" style="rhombus;whiteSpace=wrap;html=1;labelBackgroundColor=none;" vertex="1" parent="WIyWlLk6GJQsqaUBKTNV-1">
          <mxGeometry x="353.89" y="1280" width="80" height="80" as="geometry" />
        </mxCell>
        <mxCell id="M2bIpuuUTLqfdFBLBwli-73" style="edgeStyle=orthogonalEdgeStyle;rounded=0;orthogonalLoop=1;jettySize=auto;html=1;exitX=0.5;exitY=1;exitDx=0;exitDy=0;entryX=0.5;entryY=0;entryDx=0;entryDy=0;labelBackgroundColor=none;fontColor=default;" edge="1" parent="WIyWlLk6GJQsqaUBKTNV-1">
          <mxGeometry relative="1" as="geometry">
            <mxPoint x="393.55999999999995" y="1360" as="sourcePoint" />
            <mxPoint x="393.55999999999995" y="1430" as="targetPoint" />
          </mxGeometry>
        </mxCell>
        <mxCell id="M2bIpuuUTLqfdFBLBwli-74" value="No" style="edgeLabel;html=1;align=center;verticalAlign=middle;resizable=0;points=[];labelBackgroundColor=none;" vertex="1" connectable="0" parent="M2bIpuuUTLqfdFBLBwli-73">
          <mxGeometry x="-0.2248" y="-3" relative="1" as="geometry">
            <mxPoint as="offset" />
          </mxGeometry>
        </mxCell>
        <mxCell id="M2bIpuuUTLqfdFBLBwli-77" style="edgeStyle=orthogonalEdgeStyle;rounded=0;orthogonalLoop=1;jettySize=auto;html=1;exitX=0.5;exitY=1;exitDx=0;exitDy=0;entryX=0.5;entryY=0;entryDx=0;entryDy=0;labelBackgroundColor=none;fontColor=default;" edge="1" parent="WIyWlLk6GJQsqaUBKTNV-1" source="M2bIpuuUTLqfdFBLBwli-76" target="M2bIpuuUTLqfdFBLBwli-0">
          <mxGeometry relative="1" as="geometry" />
        </mxCell>
        <mxCell id="M2bIpuuUTLqfdFBLBwli-76" value="Start Game" style="rounded=1;whiteSpace=wrap;html=1;labelBackgroundColor=none;" vertex="1" parent="WIyWlLk6GJQsqaUBKTNV-1">
          <mxGeometry x="537.89" y="140" width="120" height="60" as="geometry" />
        </mxCell>
        <mxCell id="M2bIpuuUTLqfdFBLBwli-95" value="&lt;font style=&quot;font-size: 32px;&quot;&gt;Poker Flowchart&lt;/font&gt;" style="text;html=1;align=center;verticalAlign=middle;resizable=0;points=[];autosize=1;strokeColor=none;fillColor=none;labelBackgroundColor=none;" vertex="1" parent="WIyWlLk6GJQsqaUBKTNV-1">
          <mxGeometry x="472.89" y="40" width="250" height="50" as="geometry" />
        </mxCell>
        <mxCell id="M2bIpuuUTLqfdFBLBwli-101" value="Game Loop" style="text;html=1;align=center;verticalAlign=middle;resizable=0;points=[];autosize=1;strokeColor=none;fillColor=none;fontStyle=1" vertex="1" parent="WIyWlLk6GJQsqaUBKTNV-1">
          <mxGeometry x="920" y="350" width="90" height="30" as="geometry" />
        </mxCell>
        <mxCell id="M2bIpuuUTLqfdFBLBwli-102" value="Betting" style="text;html=1;align=center;verticalAlign=middle;resizable=0;points=[];autosize=1;strokeColor=none;fillColor=none;fontStyle=1" vertex="1" parent="WIyWlLk6GJQsqaUBKTNV-1">
          <mxGeometry x="910" y="595" width="60" height="30" as="geometry" />
        </mxCell>
      </root>
    </mxGraphModel>
  </diagram>
</mxfile>
